<mxfile host="Electron" compressed="false" modified="2021-11-05T14:45:46.350Z" agent="5.0 (Windows NT 10.0; Win64; x64) AppleWebKit/537.36 (KHTML, like Gecko) draw.io/15.4.0 Chrome/91.0.4472.164 Electron/13.5.0 Safari/537.36" etag="nUT0l40Zvj4HGCQBAhci" version="15.4.0" type="device">
  <diagram id="ETWsS70P1tHz5V-jA7J0" name="Page-1">
    <mxGraphModel dx="1038" dy="616" grid="1" gridSize="10" guides="1" tooltips="1" connect="1" arrows="1" fold="1" page="1" pageScale="1" pageWidth="827" pageHeight="1169" math="0" shadow="0">
      <root>
        <mxCell id="0" />
        <mxCell id="1" parent="0" />
        <mxCell id="x4GbbwbR9XK_4-UF2UaD-76" style="edgeStyle=none;rounded=0;orthogonalLoop=1;jettySize=auto;html=1;exitX=0;exitY=0.5;exitDx=0;exitDy=0;endArrow=classicThin;endFill=1;entryX=1;entryY=1;entryDx=0;entryDy=0;" edge="1" parent="1" source="x4GbbwbR9XK_4-UF2UaD-78" target="x4GbbwbR9XK_4-UF2UaD-80">
          <mxGeometry relative="1" as="geometry">
            <mxPoint x="23.75" y="370" as="targetPoint" />
          </mxGeometry>
        </mxCell>
        <mxCell id="x4GbbwbR9XK_4-UF2UaD-77" style="edgeStyle=none;rounded=0;orthogonalLoop=1;jettySize=auto;html=1;exitX=0.5;exitY=0;exitDx=0;exitDy=0;entryX=0.5;entryY=1;entryDx=0;entryDy=0;endArrow=classicThin;endFill=1;" edge="1" parent="1" source="x4GbbwbR9XK_4-UF2UaD-78" target="x4GbbwbR9XK_4-UF2UaD-103">
          <mxGeometry relative="1" as="geometry" />
        </mxCell>
        <mxCell id="x4GbbwbR9XK_4-UF2UaD-78" value="" style="ellipse;whiteSpace=wrap;html=1;aspect=fixed;fillColor=#006300;strokeColor=#2D7600;fontColor=#ffffff;" vertex="1" parent="1">
          <mxGeometry x="282.25" y="400" width="30" height="30" as="geometry" />
        </mxCell>
        <mxCell id="x4GbbwbR9XK_4-UF2UaD-79" style="edgeStyle=none;rounded=0;orthogonalLoop=1;jettySize=auto;html=1;exitX=0.5;exitY=0;exitDx=0;exitDy=0;entryX=0.5;entryY=1;entryDx=0;entryDy=0;endArrow=classicThin;endFill=1;" edge="1" parent="1" source="x4GbbwbR9XK_4-UF2UaD-80" target="x4GbbwbR9XK_4-UF2UaD-83">
          <mxGeometry relative="1" as="geometry" />
        </mxCell>
        <mxCell id="x4GbbwbR9XK_4-UF2UaD-80" value="" style="ellipse;whiteSpace=wrap;html=1;aspect=fixed;fillColor=#99FF99;strokeColor=#005700;fontColor=#ffffff;" vertex="1" parent="1">
          <mxGeometry x="83.75" y="350" width="30" height="30" as="geometry" />
        </mxCell>
        <mxCell id="x4GbbwbR9XK_4-UF2UaD-81" style="edgeStyle=none;rounded=0;orthogonalLoop=1;jettySize=auto;html=1;exitX=0.5;exitY=0;exitDx=0;exitDy=0;entryX=0.5;entryY=1;entryDx=0;entryDy=0;endArrow=classicThin;endFill=1;" edge="1" parent="1" source="x4GbbwbR9XK_4-UF2UaD-82" target="x4GbbwbR9XK_4-UF2UaD-78">
          <mxGeometry relative="1" as="geometry" />
        </mxCell>
        <mxCell id="x4GbbwbR9XK_4-UF2UaD-82" value="" style="ellipse;whiteSpace=wrap;html=1;aspect=fixed;fillColor=#006300;strokeColor=#2D7600;fontColor=#ffffff;" vertex="1" parent="1">
          <mxGeometry x="282.25" y="450" width="30" height="30" as="geometry" />
        </mxCell>
        <mxCell id="x4GbbwbR9XK_4-UF2UaD-83" value="" style="ellipse;whiteSpace=wrap;html=1;aspect=fixed;fillColor=#99FF99;strokeColor=#005700;fontColor=#ffffff;" vertex="1" parent="1">
          <mxGeometry x="83.75" y="300" width="30" height="30" as="geometry" />
        </mxCell>
        <mxCell id="x4GbbwbR9XK_4-UF2UaD-84" style="edgeStyle=none;rounded=0;orthogonalLoop=1;jettySize=auto;html=1;entryX=0.5;entryY=1;entryDx=0;entryDy=0;endArrow=classicThin;endFill=1;exitX=0.5;exitY=0;exitDx=0;exitDy=0;" edge="1" parent="1" source="x4GbbwbR9XK_4-UF2UaD-83" target="x4GbbwbR9XK_4-UF2UaD-86">
          <mxGeometry relative="1" as="geometry">
            <mxPoint x="3.75" y="290" as="sourcePoint" />
          </mxGeometry>
        </mxCell>
        <mxCell id="x4GbbwbR9XK_4-UF2UaD-85" style="edgeStyle=none;rounded=0;orthogonalLoop=1;jettySize=auto;html=1;exitX=0.5;exitY=0;exitDx=0;exitDy=0;entryX=0.5;entryY=1;entryDx=0;entryDy=0;endArrow=classicThin;endFill=1;" edge="1" parent="1" source="x4GbbwbR9XK_4-UF2UaD-86" target="x4GbbwbR9XK_4-UF2UaD-88">
          <mxGeometry relative="1" as="geometry" />
        </mxCell>
        <mxCell id="x4GbbwbR9XK_4-UF2UaD-86" value="" style="ellipse;whiteSpace=wrap;html=1;aspect=fixed;fillColor=#99FF99;strokeColor=#005700;fontColor=#ffffff;" vertex="1" parent="1">
          <mxGeometry x="83.75" y="250" width="30" height="30" as="geometry" />
        </mxCell>
        <mxCell id="x4GbbwbR9XK_4-UF2UaD-87" style="edgeStyle=none;rounded=0;orthogonalLoop=1;jettySize=auto;html=1;exitX=0.5;exitY=0;exitDx=0;exitDy=0;entryX=0.5;entryY=1;entryDx=0;entryDy=0;endArrow=classicThin;endFill=1;" edge="1" parent="1" source="x4GbbwbR9XK_4-UF2UaD-88" target="x4GbbwbR9XK_4-UF2UaD-106">
          <mxGeometry relative="1" as="geometry" />
        </mxCell>
        <mxCell id="x4GbbwbR9XK_4-UF2UaD-88" value="" style="ellipse;whiteSpace=wrap;html=1;aspect=fixed;fillColor=#99FF99;strokeColor=#005700;fontColor=#ffffff;" vertex="1" parent="1">
          <mxGeometry x="83.75" y="190" width="30" height="30" as="geometry" />
        </mxCell>
        <mxCell id="x4GbbwbR9XK_4-UF2UaD-89" value="master" style="text;html=1;strokeColor=none;fillColor=none;align=center;verticalAlign=middle;whiteSpace=wrap;rounded=0;rotation=-90;fontStyle=1" vertex="1" parent="1">
          <mxGeometry x="263.63" y="190" width="67.25" height="30" as="geometry" />
        </mxCell>
        <mxCell id="x4GbbwbR9XK_4-UF2UaD-90" value="p12346-change" style="text;html=1;strokeColor=none;fillColor=none;align=center;verticalAlign=middle;whiteSpace=wrap;rounded=0;rotation=-90;fontStyle=1" vertex="1" parent="1">
          <mxGeometry x="50" y="60" width="97.5" height="30" as="geometry" />
        </mxCell>
        <mxCell id="x4GbbwbR9XK_4-UF2UaD-91" value="PUBLISH 1231" style="text;html=1;strokeColor=none;fillColor=none;align=right;verticalAlign=middle;whiteSpace=wrap;rounded=0;" vertex="1" parent="1">
          <mxGeometry x="182.25" y="450" width="100" height="30" as="geometry" />
        </mxCell>
        <mxCell id="x4GbbwbR9XK_4-UF2UaD-92" value="p12345 Some change." style="text;html=1;strokeColor=none;fillColor=none;align=right;verticalAlign=middle;whiteSpace=wrap;rounded=0;" vertex="1" parent="1">
          <mxGeometry x="142.25" y="400" width="140" height="30" as="geometry" />
        </mxCell>
        <mxCell id="x4GbbwbR9XK_4-UF2UaD-93" value="&lt;strong&gt;p11788-link-filter-title&lt;/strong&gt;" style="text;html=1;strokeColor=none;fillColor=none;align=center;verticalAlign=middle;whiteSpace=wrap;rounded=0;rotation=-90;fontStyle=1" vertex="1" parent="1">
          <mxGeometry x="339.75" y="170" width="145" height="30" as="geometry" />
        </mxCell>
        <mxCell id="x4GbbwbR9XK_4-UF2UaD-94" style="rounded=0;orthogonalLoop=1;jettySize=auto;html=1;exitX=0.5;exitY=0;exitDx=0;exitDy=0;endArrow=classicThin;endFill=1;entryX=0.5;entryY=1;entryDx=0;entryDy=0;" edge="1" parent="1" source="x4GbbwbR9XK_4-UF2UaD-95" target="x4GbbwbR9XK_4-UF2UaD-97">
          <mxGeometry relative="1" as="geometry">
            <mxPoint x="412" y="360" as="targetPoint" />
          </mxGeometry>
        </mxCell>
        <mxCell id="x4GbbwbR9XK_4-UF2UaD-95" value="" style="ellipse;whiteSpace=wrap;html=1;aspect=fixed;fillColor=#00FF00;strokeColor=#005700;fontColor=#ffffff;" vertex="1" parent="1">
          <mxGeometry x="397.25" y="380" width="30" height="30" as="geometry" />
        </mxCell>
        <mxCell id="x4GbbwbR9XK_4-UF2UaD-96" style="edgeStyle=none;rounded=0;orthogonalLoop=1;jettySize=auto;html=1;exitX=0.5;exitY=0;exitDx=0;exitDy=0;entryX=0.5;entryY=1;entryDx=0;entryDy=0;endArrow=classicThin;endFill=1;" edge="1" parent="1" source="x4GbbwbR9XK_4-UF2UaD-97" target="x4GbbwbR9XK_4-UF2UaD-100">
          <mxGeometry relative="1" as="geometry" />
        </mxCell>
        <mxCell id="x4GbbwbR9XK_4-UF2UaD-97" value="" style="ellipse;whiteSpace=wrap;html=1;aspect=fixed;fillColor=#00FF00;strokeColor=#005700;fontColor=#ffffff;" vertex="1" parent="1">
          <mxGeometry x="397.25" y="330" width="30" height="30" as="geometry" />
        </mxCell>
        <mxCell id="x4GbbwbR9XK_4-UF2UaD-98" style="edgeStyle=none;rounded=0;orthogonalLoop=1;jettySize=auto;html=1;exitX=0;exitY=0.5;exitDx=0;exitDy=0;entryX=1;entryY=0.5;entryDx=0;entryDy=0;endArrow=classicThin;endFill=1;dashed=1;" edge="1" parent="1" source="x4GbbwbR9XK_4-UF2UaD-100" target="x4GbbwbR9XK_4-UF2UaD-103">
          <mxGeometry relative="1" as="geometry" />
        </mxCell>
        <mxCell id="x4GbbwbR9XK_4-UF2UaD-99" value="patch = &lt;br&gt;merge squash" style="edgeLabel;html=1;align=center;verticalAlign=middle;resizable=0;points=[];" vertex="1" connectable="0" parent="x4GbbwbR9XK_4-UF2UaD-98">
          <mxGeometry x="-0.2937" y="-3" relative="1" as="geometry">
            <mxPoint x="-2" y="-12" as="offset" />
          </mxGeometry>
        </mxCell>
        <mxCell id="x4GbbwbR9XK_4-UF2UaD-100" value="" style="ellipse;whiteSpace=wrap;html=1;aspect=fixed;fillColor=#00FF00;strokeColor=#005700;fontColor=#ffffff;" vertex="1" parent="1">
          <mxGeometry x="397.25" y="280" width="30" height="30" as="geometry" />
        </mxCell>
        <mxCell id="x4GbbwbR9XK_4-UF2UaD-101" style="edgeStyle=none;rounded=0;orthogonalLoop=1;jettySize=auto;html=1;exitX=0;exitY=0;exitDx=0;exitDy=0;entryX=1;entryY=0.5;entryDx=0;entryDy=0;endArrow=classicThin;endFill=1;" edge="1" parent="1" source="x4GbbwbR9XK_4-UF2UaD-103" target="x4GbbwbR9XK_4-UF2UaD-88">
          <mxGeometry relative="1" as="geometry" />
        </mxCell>
        <mxCell id="x4GbbwbR9XK_4-UF2UaD-102" value="regular merge" style="edgeLabel;html=1;align=center;verticalAlign=middle;resizable=0;points=[];" vertex="1" connectable="0" parent="x4GbbwbR9XK_4-UF2UaD-101">
          <mxGeometry x="0.1252" y="1" relative="1" as="geometry">
            <mxPoint y="-8" as="offset" />
          </mxGeometry>
        </mxCell>
        <mxCell id="x4GbbwbR9XK_4-UF2UaD-103" value="" style="ellipse;whiteSpace=wrap;html=1;aspect=fixed;fillColor=#006300;strokeColor=#2D7600;fontColor=#ffffff;" vertex="1" parent="1">
          <mxGeometry x="282.25" y="250" width="30" height="30" as="geometry" />
        </mxCell>
        <mxCell id="x4GbbwbR9XK_4-UF2UaD-104" style="edgeStyle=none;rounded=0;orthogonalLoop=1;jettySize=auto;html=1;exitX=1;exitY=0.5;exitDx=0;exitDy=0;endArrow=classicThin;endFill=1;" edge="1" parent="1" source="x4GbbwbR9XK_4-UF2UaD-78" target="x4GbbwbR9XK_4-UF2UaD-95">
          <mxGeometry relative="1" as="geometry">
            <mxPoint x="133.75" y="405" as="sourcePoint" />
            <mxPoint x="243.75" y="390" as="targetPoint" />
          </mxGeometry>
        </mxCell>
        <mxCell id="x4GbbwbR9XK_4-UF2UaD-105" value="p11788 Link filter title." style="text;html=1;strokeColor=none;fillColor=none;align=right;verticalAlign=middle;whiteSpace=wrap;rounded=0;" vertex="1" parent="1">
          <mxGeometry x="139.75" y="250" width="140" height="30" as="geometry" />
        </mxCell>
        <mxCell id="x4GbbwbR9XK_4-UF2UaD-106" value="" style="ellipse;whiteSpace=wrap;html=1;aspect=fixed;fillColor=#99FF99;strokeColor=#005700;fontColor=#ffffff;" vertex="1" parent="1">
          <mxGeometry x="83.75" y="130" width="30" height="30" as="geometry" />
        </mxCell>
        <mxCell id="x4GbbwbR9XK_4-UF2UaD-107" value="" style="ellipse;whiteSpace=wrap;html=1;aspect=fixed;fillColor=#99FF99;strokeColor=#005700;fontColor=#ffffff;" vertex="1" parent="1">
          <mxGeometry x="530" y="250" width="30" height="30" as="geometry" />
        </mxCell>
        <mxCell id="x4GbbwbR9XK_4-UF2UaD-108" value="" style="ellipse;whiteSpace=wrap;html=1;aspect=fixed;fillColor=#006300;strokeColor=#2D7600;fontColor=#ffffff;" vertex="1" parent="1">
          <mxGeometry x="630" y="250" width="30" height="30" as="geometry" />
        </mxCell>
        <mxCell id="x4GbbwbR9XK_4-UF2UaD-109" value="" style="ellipse;whiteSpace=wrap;html=1;aspect=fixed;fillColor=#00FF00;strokeColor=#005700;fontColor=#ffffff;" vertex="1" parent="1">
          <mxGeometry x="580" y="250" width="30" height="30" as="geometry" />
        </mxCell>
        <mxCell id="x4GbbwbR9XK_4-UF2UaD-110" value="Commits with comments" style="text;html=1;strokeColor=none;fillColor=none;align=right;verticalAlign=middle;whiteSpace=wrap;rounded=0;" vertex="1" parent="1">
          <mxGeometry x="670" y="250" width="140" height="30" as="geometry" />
        </mxCell>
        <mxCell id="x4GbbwbR9XK_4-UF2UaD-114" value="" style="endArrow=classic;html=1;rounded=0;" edge="1" parent="1">
          <mxGeometry width="50" height="50" relative="1" as="geometry">
            <mxPoint x="470" y="460" as="sourcePoint" />
            <mxPoint x="470" y="40" as="targetPoint" />
          </mxGeometry>
        </mxCell>
        <mxCell id="x4GbbwbR9XK_4-UF2UaD-115" value="Time" style="text;html=1;strokeColor=none;fillColor=none;align=center;verticalAlign=middle;whiteSpace=wrap;rounded=0;" vertex="1" parent="1">
          <mxGeometry x="470" y="420" width="45.25" height="30" as="geometry" />
        </mxCell>
      </root>
    </mxGraphModel>
  </diagram>
</mxfile>
